<svg xmlns="http://www.w3.org/2000/svg" width="16" height="16" viewBox="0 0 16 16">
    <g fill="none" fill-rule="evenodd">
        <path d="M0 0H14.4V14.4H0z" transform="translate(.8 .7)"/>
        <path fill="#FFF" d="M12.217 1.934c.027 1.662-.184 2.908-1.13 3.995-.802.988-2.053 1.55-3.753 1.684v4.606h-.515V7.613c-1.7-.134-2.95-.696-3.753-1.684-.945-1.087-1.157-2.333-1.13-3.995 2.19.14 2.985.626 4.08 1.875.649.74.999 1.829 1.05 3.266h.022c.05-1.437.4-2.526 1.05-3.266 1.094-1.249 1.888-1.734 4.08-1.875z" transform="translate(.8 .7)"/>
    </g>
</svg>
